<?xml version="1.0" encoding="UTF-8" standalone="no"?><!DOCTYPE svg PUBLIC "-//W3C//DTD SVG 1.1//EN" "http://www.w3.org/Graphics/SVG/1.1/DTD/svg11.dtd"><svg width="100%" height="100%" viewBox="0 0 72 72" version="1.1" xmlns="http://www.w3.org/2000/svg" xmlns:xlink="http://www.w3.org/1999/xlink" xml:space="preserve" xmlns:serif="http://www.serif.com/" style="fill-rule:evenodd;clip-rule:evenodd;stroke-linejoin:round;stroke-miterlimit:2;"><rect id="Favicon" x="0" y="-0" width="71.52" height="71.76" style="fill:none;"/><g><path d="M12.838,40.56l3.826,0l3.496,-6.575c0.628,0.555 1.563,1.355 2.995,2.547l-4.183,7.868l-5.093,0l-1.04,-3.84Z" style="fill:#0c4e6d;"/><path d="M12.552,44.4l-9.95,0l2.651,-3.84l5.855,0c0.2,0.881 0.598,1.986 1.445,3.84Z" style="fill:#0c4e6d;"/><path d="M41.634,42.805l2.415,9.453c-1.577,0.153 -2.569,0.329 -3.837,0.495l-1.909,-7.474c1.774,-1.149 2.695,-1.81 3.332,-2.473Z" style="fill:#0c4e6d;"/><path d="M51.617,53.259l-3.967,7.461l-5.408,0l-1.754,-6.866l3.91,-0.209l0.865,3.385l1.878,-3.532l4.476,-0.24Z" style="fill:#0c4e6d;"/><path d="M47.646,52.04l4.979,-9.364c0.98,1.746 1.611,3.019 2.201,4.041l-2.736,5.145c-1.175,0.031 -2.582,0.085 -4.444,0.178Z" style="fill:#0c4e6d;"/><path d="M53.793,41.083l1.172,-2.203l14.331,0l-2.651,3.84l-9.373,0l-0.902,1.696l-2.577,-3.332Z" style="fill:#0c4e6d;"/><path d="M12.335,18.817c-1.998,2.617 -3.551,5.593 -4.545,8.812c-1.596,-0.005 -2.8,-0.012 -4.42,0.005c1.557,-5.851 4.709,-11.056 8.962,-15.124c-0.003,2.631 -0.005,4.676 0.004,6.307Z" style="fill:#de2446;"/><path d="M7.299,28.623c-0.698,2.271 -1.119,4.663 -1.221,7.137l-4.255,0c0.089,-2.445 0.448,-4.822 1.05,-7.101l4.427,-0.035Z" style="fill:#de2446;"/><path d="M30.587,7.61c-6.866,1.227 -12.879,4.93 -17.08,10.15l-0.204,-5.969c3.731,-3.494 8.285,-6.122 13.339,-7.562c1.269,1.269 2.568,2.311 3.848,3.286l0.097,0.094Z" style="fill:#de2446;"/><path d="M53.492,12.128c-4.684,-3.42 -10.454,-5.44 -16.693,-5.44c-1.702,0 -3.37,0.15 -4.99,0.439c-0.04,-0.03 -0.079,-0.06 -0.119,-0.091l-3.477,-3.39c2.736,-0.745 5.615,-1.142 8.586,-1.142c9.181,0 17.48,3.795 23.407,9.898l-6.714,-0.274Z" style="fill:#de2446;"/><path d="M63.231,24.661c-1.834,-4.417 -4.754,-8.271 -8.425,-11.23c1.701,-0.017 3.692,-0.043 6.106,-0.061c2.008,2.154 3.726,4.58 5.094,7.215c-0.764,1.07 -1.764,2.508 -2.775,4.075Z" style="fill:#de2446;"/><path d="M66.391,21.589c2.061,4.068 3.291,8.626 3.466,13.451l-4.255,0c-0.128,-3.093 -0.754,-6.059 -1.798,-8.819l2.587,-4.631Z" style="fill:#de2446;"/><path d="M6.689,54.101c-1.424,-2.036 -2.62,-4.242 -3.553,-6.581l4.621,0c1.024,2.184 2.318,4.217 3.839,6.054l-4.908,0.526Z" style="fill:#de2446;"/><path d="M16.513,63.888c-3.517,-2.18 -6.589,-5.01 -9.046,-8.321c1.528,-0.061 2.896,-0.237 4.865,-0.69c1.263,1.445 2.67,2.76 4.198,3.924l-0.017,5.087Z" style="fill:#de2446;"/><path d="M17.988,59.294c2.519,1.915 5.369,3.419 8.447,4.41l-3.841,3.049c-1.604,-0.667 -3.143,-1.459 -4.605,-2.363c0,-1.291 -0,-2.941 -0.001,-5.096Z" style="fill:#de2446;"/><path d="M27.966,64.325c2.357,0.636 4.836,0.976 7.394,0.976c1.711,0 3.387,-0.152 5.015,-0.443l-2.701,4.546c-0.764,0.054 -1.536,0.081 -2.313,0.081c-3.937,0 -7.713,-0.698 -11.208,-1.977c1.256,-0.961 2.557,-2.061 3.815,-3.182Z" style="fill:#de2446;"/><path d="M37.756,27.359l3.438,13.458l-3.254,2.779l-3.711,-14.53l0.618,-0.409l2.91,-1.298Z" style="fill:#0c4e6d;"/><path d="M27.904,27.755l-4.021,7.563l-2.959,-2.615l3.733,-7.02c0.842,0.55 1.505,0.966 2.11,1.334l1.138,0.738Z" style="fill:#0c4e6d;"/><path d="M33.441,27.143l-1.665,-6.517l-3.13,5.886c-0.384,-0.227 -0.76,-0.45 -1.161,-0.694l-2.096,-1.359l3.944,-7.418l5.49,0l2.234,8.746l-3.617,1.357Z" style="fill:#0c4e6d;"/></g></svg>